<svg xmlns="http://www.w3.org/2000/svg" width="158.253" height="40.686"><path fill="#FFF" d="M65.327 23.208h-6.589v11.388h-4.393V5.638h10.981c5.653 0 9.271 3.742 9.271 8.785s-3.618 8.785-9.27 8.785zm-.245-13.625h-6.345v9.639h6.345c3.05 0 5.124-1.749 5.124-4.799 0-3.051-2.074-4.84-5.124-4.84zM83.969 34.596c-3.904 0-5.652-2.644-5.652-5.693V5.638h4.148v23.021c0 1.587.567 2.399 2.235 2.399h1.83v3.538h-2.561zM104.762 32.399c-1.344 1.384-3.377 2.44-6.184 2.44-2.805 0-4.799-1.058-6.141-2.44-1.951-2.032-2.439-4.637-2.439-8.134 0-3.457.488-6.061 2.439-8.094 1.342-1.383 3.336-2.44 6.141-2.44 2.807 0 4.84 1.059 6.184 2.44 1.951 2.033 2.439 4.637 2.439 8.094.002 3.498-.488 6.101-2.439 8.134zm-3.133-13.786c-.773-.773-1.83-1.181-3.051-1.181-1.219 0-2.236.406-3.01 1.181-1.26 1.261-1.422 3.416-1.422 5.652s.162 4.393 1.422 5.653c.773.771 1.791 1.22 3.01 1.22 1.221 0 2.277-.447 3.051-1.22 1.262-1.262 1.424-3.417 1.424-5.653s-.162-4.392-1.424-5.652zM123.643 34.596V22.029c0-3.214-1.83-4.597-4.147-4.597s-4.271 1.423-4.271 4.597v12.566h-4.147v-20.62h4.065v2.074c1.425-1.546 3.416-2.318 5.49-2.318 2.115 0 3.865.691 5.084 1.871 1.586 1.545 2.074 3.497 2.074 5.815v13.178l-4.148.001zM135.772 25.486c0 3.537 1.871 5.774 5.246 5.774 2.317 0 3.539-.649 5.004-2.115l2.643 2.481c-2.115 2.114-4.107 3.213-7.727 3.213-5.166 0-9.273-2.725-9.273-10.574 0-6.671 3.457-10.534 8.744-10.534 5.531 0 8.744 4.067 8.744 9.925v1.83h-13.381zm8.703-5.695c-.65-1.545-2.113-2.604-4.066-2.604-1.951 0-3.457 1.059-4.107 2.604-.406.936-.488 1.546-.529 2.807h9.273c-.043-1.261-.163-1.872-.571-2.807z"/><circle fill="#FFF" cx="17.815" cy="11.516" r="4.402"/><path fill="#FFF" d="M31.167 20.311a4.403 4.403 0 0 1-8.804 0 4.402 4.402 0 0 1 8.804 0z"/><circle fill="#FFF" cx="17.801" cy="29.131" r="4.402"/><path fill="#FFF" d="M20.441-.045C9.207-.044.1 9.063.099 20.298.1 31.532 9.207 40.639 20.441 40.641c11.235-.002 20.341-9.107 20.343-20.343C40.783 9.063 31.677-.044 20.441-.045zm11.45 31.792a16.131 16.131 0 0 1-11.45 4.743 16.14 16.14 0 0 1-11.45-4.743 16.134 16.134 0 0 1-4.742-11.449 16.131 16.131 0 0 1 4.743-11.45 16.131 16.131 0 0 1 11.45-4.743 16.136 16.136 0 0 1 11.45 4.743 16.135 16.135 0 0 1 4.743 11.45 16.136 16.136 0 0 1-4.744 11.449zM153.985 9.95a2.168 2.168 0 1 0 2.172 2.168 2.17 2.17 0 0 0-2.172-2.168zm0 4.018a1.85 1.85 0 0 1 0-3.701 1.855 1.855 0 0 1 1.854 1.851 1.855 1.855 0 0 1-1.854 1.85z"/><path fill="#FFF" d="M154.507 13.409l-.54-1.08h-.486v1.08h-.389v-2.564h.994c.484 0 .796.313.796.75a.672.672 0 0 1-.513.68l.592 1.136-.454-.002zm-.451-2.214h-.575v.803h.575c.261 0 .437-.147.437-.399s-.176-.404-.437-.404z"/></svg>