<svg id="Layer_1" xmlns="http://www.w3.org/2000/svg" viewBox="0 0 158.3 40.7"><style>.st0{fill:#fff}</style><path class="st0" d="M65.3 23.2h-6.6v11.4h-4.4v-29h11c5.7 0 9.3 3.7 9.3 8.8s-3.6 8.8-9.3 8.8zm-.2-13.6h-6.3v9.6h6.3c3.1 0 5.1-1.7 5.1-4.8 0-3-2.1-4.8-5.1-4.8zM84 34.6c-3.9 0-5.7-2.6-5.7-5.7V5.6h4.1v23c0 1.6.6 2.4 2.2 2.4h1.8v3.5H84zM104.8 32.4c-1.3 1.4-3.4 2.4-6.2 2.4-2.8 0-4.8-1.1-6.1-2.4-2-2-2.4-4.6-2.4-8.1s.5-6.1 2.4-8.1c1.3-1.4 3.3-2.4 6.1-2.4s4.8 1.1 6.2 2.4c2 2 2.4 4.6 2.4 8.1s-.5 6.1-2.4 8.1zm-3.2-13.8c-.8-.8-1.8-1.2-3.1-1.2-1.2 0-2.2.4-3 1.2-1.3 1.3-1.4 3.4-1.4 5.7s.2 4.4 1.4 5.7c.8.8 1.8 1.2 3 1.2s2.3-.4 3.1-1.2c1.3-1.3 1.4-3.4 1.4-5.7s-.1-4.4-1.4-5.7zM123.6 34.6V22c0-3.2-1.8-4.6-4.1-4.6s-4.3 1.4-4.3 4.6v12.6h-4.1V14h4.1v2c1.4-1.5 3.4-2.3 5.5-2.3s3.9.7 5.1 1.9c1.6 1.5 2.1 3.5 2.1 5.8v13.2h-4.3zM135.8 25.5c0 3.5 1.9 5.8 5.2 5.8 2.3 0 3.5-.6 5-2.1l2.6 2.5c-2.1 2.1-4.1 3.2-7.7 3.2-5.2 0-9.3-2.7-9.3-10.6 0-6.7 3.5-10.5 8.7-10.5 5.5 0 8.7 4.1 8.7 9.9v1.8h-13.2zm8.7-5.7c-.6-1.5-2.1-2.6-4.1-2.6-2 0-3.5 1.1-4.1 2.6-.4.9-.5 1.5-.5 2.8h9.3c-.1-1.3-.2-1.9-.6-2.8z"/><circle class="st0" cx="17.8" cy="11.5" r="4.4"/><path class="st0" d="M31.2 20.3c0 2.4-2 4.4-4.4 4.4-2.4 0-4.4-2-4.4-4.4 0-2.4 2-4.4 4.4-4.4 2.4 0 4.4 2 4.4 4.4z"/><circle class="st0" cx="17.8" cy="29.1" r="4.4"/><path class="st0" d="M20.4 0C9.2 0 .1 9.1.1 20.3c0 11.2 9.1 20.3 20.3 20.3 11.2 0 20.3-9.1 20.3-20.3C40.8 9.1 31.7 0 20.4 0zm11.5 31.7c-2.9 2.9-7 4.7-11.4 4.7-4.5 0-8.5-1.8-11.4-4.7-2.9-2.9-4.7-7-4.7-11.4 0-4.5 1.8-8.5 4.7-11.5 2.9-2.9 7-4.7 11.5-4.7s8.5 1.8 11.5 4.7c2.9 2.9 4.7 7 4.7 11.5-.2 4.5-2 8.5-4.9 11.4zM154 10c-1.2 0-2.2 1-2.2 2.2 0 1.2 1 2.2 2.2 2.2 1.2 0 2.2-1 2.2-2.2s-1-2.2-2.2-2.2zm0 4c-1 0-1.8-.8-1.8-1.9 0-1 .8-1.8 1.8-1.9 1 0 1.9.8 1.9 1.9-.1 1-.9 1.9-1.9 1.9z"/><path class="st0" d="M154.5 13.4l-.5-1.1h-.5v1.1h-.4v-2.6h1c.5 0 .8.3.8.8 0 .4-.2.6-.5.7l.6 1.1h-.5zm-.4-2.2h-.6v.8h.6c.3 0 .4-.1.4-.4s-.2-.4-.4-.4z"/></svg>