<svg xmlns="http://www.w3.org/2000/svg" style="isolation:isolate" width="945.946" height="400.679"><defs><clipPath id="a"><path d="M0 0h945.946v400.679H0z"/></clipPath></defs><g fill="#FFF" clip-path="url(#a)"><path d="M465.621 0C379.677 0 317.97 55.139 317.97 183.798c0 145.813 61.707 184.41 147.651 184.41 85.944 0 151.327-42.273 151.327-184.41C616.948 31.858 551.565 0 465.621 0zm.565 319.808c-59.527 0-90.626-34.923-90.626-135.916 0-89.112 32.372-136.105 91.899-136.105s91.899 30.868 91.899 136.105c0 98.447-33.645 135.916-93.172 135.916zM266.507 266.507h-35.534V161.868c0-11.574-9.383-20.956-20.956-20.956h-8.327a20.957 20.957 0 0 0-20.955 20.956v104.639H80.505a11.964 11.964 0 0 1-10.578-17.552l106.082-200.78a20.956 20.956 0 0 0-9.58-28.739l-6.262-2.957c-10.1-4.77-22.164-.78-27.43 9.07L3.356 267.581a28.415 28.415 0 0 0 25.06 41.812h152.319v66.167a25.119 25.119 0 0 0 25.119 25.119 25.12 25.12 0 0 0 25.119-25.119v-66.167h35.534a21.442 21.442 0 0 0 21.443-21.443c0-11.843-9.6-21.443-21.443-21.443zM924.504 266.507h-35.535V161.868c0-11.574-9.382-20.956-20.956-20.956h-8.326a20.956 20.956 0 0 0-20.956 20.956v104.639h-100.23a11.961 11.961 0 0 1-10.578-17.552l106.083-200.78a20.956 20.956 0 0 0-9.581-28.739l-6.262-2.957c-10.099-4.77-22.164-.78-27.429 9.07L661.352 267.581a28.414 28.414 0 0 0 25.06 41.812h152.319v66.167a25.119 25.119 0 0 0 25.119 25.119 25.119 25.119 0 0 0 25.119-25.119v-66.167h35.534a21.445 21.445 0 0 0 21.443-21.443c.001-11.843-9.6-21.443-21.442-21.443z"/></g></svg>