<svg xmlns="http://www.w3.org/2000/svg" style="isolation:isolate" width="910.225" height="801.723"><defs><clipPath id="a"><path d="M0 0h910.225v801.723H0z"/></clipPath></defs><g fill="#FFF" clip-path="url(#a)"><path d="M121.599 257.152a26.27 26.27 0 1 1-22.874-39.372c33.373-56.245 134.803-187.673 356.411-187.673 95.993 0 180.174 25.498 250.106 75.744 57.558 41.247 89.806 87.931 105.18 110.429a26.055 26.055 0 0 1-6.937 36.373c-12.09 8.102-28.443 5.015-36.748-6.937-27.935-40.497-112.679-163.488-311.601-163.488-194.235 0-281.979 113.242-310.664 161.8a25.878 25.878 0 0 1-22.873 13.124z"/><path d="M566.69 771.614a26.183 26.183 0 0 1-6.562-.75c-160.675-40.31-220.671-202.673-223.108-209.422l-.375-1.5c-1.313-4.687-33.56-116.054 15.936-181.299 22.686-29.81 57.183-44.996 102.742-44.996 42.372 0 72.932 13.311 93.931 40.872 17.248 22.498 24.185 50.246 30.935 77.056 14.061 55.684 24.186 84.931 82.681 87.931 25.686 1.312 42.56-13.874 52.121-26.81 25.873-35.248 30.373-92.806 10.874-143.427-25.123-65.62-113.991-189.173-270.729-189.173-66.933 0-128.428 21.748-177.737 62.62-40.872 33.935-73.307 81.744-88.868 130.865-28.873 91.493 8.999 235.295 9.374 236.607a26.007 26.007 0 0 1-18.748 31.873c-14.067 3.712-28.51-4.552-32.435-18.561-1.688-6.562-42.185-159.926-8.812-265.668 36.372-114.554 148.489-230.045 317.226-230.045 77.994 0 151.676 26.811 213.171 77.432 47.622 39.372 86.619 92.243 106.867 145.114 25.873 67.495 18.936 143.239-17.623 192.735-24.374 32.998-59.058 50.247-97.493 48.372-100.118-5.062-118.116-75.745-131.24-127.303-13.499-52.871-22.123-78.369-73.682-78.369-28.31 0-48.184 7.874-60.558 24.185-16.874 22.311-18.186 57.184-16.311 82.494l.057.792a213.611 213.611 0 0 0 28.517 91.309c26.027 44.877 78.821 113.701 166.411 135.694a26.049 26.049 0 0 1 19.124 31.686 26.618 26.618 0 0 1-25.686 19.686z"/><path d="M360.456 759.614a26.69 26.69 0 0 1-19.311-8.249c-64.308-68.245-100.68-144.552-114.367-239.982v-.562c-7.687-63.183 3.562-152.614 58.683-214.109 40.685-45.372 97.868-68.432 169.675-68.432 84.931 0 151.676 39.934 193.298 115.303a324.107 324.107 0 0 1 36.372 111.554c1.286 14.426-9.255 27.209-23.661 28.696-14.406 1.486-27.335-8.874-29.022-23.258a271.394 271.394 0 0 0-30.936-93.181c-32.247-57.558-81.368-86.806-146.239-86.806-56.058 0-99.93 17.061-130.115 50.809-43.496 48.559-51.933 123.365-45.934 172.862 11.999 84.368 44.059 151.488 100.68 211.484a25.93 25.93 0 0 1-1.312 36.934 26.593 26.593 0 0 1-17.811 6.937z"/><circle vector-effect="non-scaling-stroke" cx="455.511" cy="481.011" r="33.747"/></g></svg>