<?xml version="1.0" standalone="no"?><!-- Generator: Gravit.io --><svg xmlns="http://www.w3.org/2000/svg" xmlns:xlink="http://www.w3.org/1999/xlink" style="isolation:isolate" viewBox="0 0 910.225 801.723" width="910.225" height="801.723"><defs><clipPath id="_clipPath_T8iWymBQpF7l16cKAKPEVM1RaJCNRBtC"><rect width="910.225" height="801.723"/></clipPath></defs><g clip-path="url(#_clipPath_T8iWymBQpF7l16cKAKPEVM1RaJCNRBtC)"><g><path d=" M 121.599 257.152 C 112.202 257.189 103.501 252.204 98.781 244.078 C 94.06 235.953 94.039 225.925 98.725 217.78 C 132.098 161.535 233.528 30.107 455.136 30.107 C 551.129 30.107 635.31 55.605 705.242 105.851 C 762.8 147.098 795.048 193.782 810.422 216.28 C 814.359 222.013 815.841 229.082 814.539 235.913 C 813.236 242.745 809.256 248.772 803.485 252.653 C 791.395 260.755 775.042 257.668 766.737 245.716 C 738.802 205.219 654.058 82.228 455.136 82.228 C 260.901 82.228 173.157 195.47 144.472 244.028 C 139.815 252.251 131.047 257.282 121.599 257.152 L 121.599 257.152 Z " fill="rgb(255,255,255)"/><path d=" M 566.69 771.614 C 564.48 771.642 562.275 771.39 560.128 770.864 C 399.453 730.554 339.457 568.191 337.02 561.442 L 336.645 559.942 C 335.332 555.255 303.085 443.888 352.581 378.643 C 375.267 348.833 409.764 333.647 455.323 333.647 C 497.695 333.647 528.255 346.958 549.254 374.519 C 566.502 397.017 573.439 424.765 580.189 451.575 C 594.25 507.259 604.375 536.506 662.87 539.506 C 688.556 540.818 705.43 525.632 714.991 512.696 C 740.864 477.448 745.364 419.89 725.865 369.269 C 700.742 303.649 611.874 180.096 455.136 180.096 C 388.203 180.096 326.708 201.844 277.399 242.716 C 236.527 276.651 204.092 324.46 188.531 373.581 C 159.658 465.074 197.53 608.876 197.905 610.188 C 199.685 616.903 198.705 624.05 195.183 630.038 C 191.661 636.025 185.89 640.354 179.157 642.061 C 165.09 645.773 150.647 637.509 146.722 623.5 C 145.034 616.938 104.537 463.574 137.91 357.832 C 174.282 243.278 286.399 127.787 455.136 127.787 C 533.13 127.787 606.812 154.598 668.307 205.219 C 715.929 244.591 754.926 297.462 775.174 350.333 C 801.047 417.828 794.11 493.572 757.551 543.068 C 733.177 576.066 698.493 593.315 660.058 591.44 C 559.94 586.378 541.942 515.695 528.818 464.137 C 515.319 411.266 506.695 385.768 455.136 385.768 C 426.826 385.768 406.952 393.642 394.578 409.953 C 377.704 432.264 376.392 467.137 378.267 492.447 Q 378.295 492.844 378.324 493.239 C 380.805 525.44 390.555 556.659 406.841 584.548 C 432.868 629.425 485.662 698.249 573.252 720.242 C 580.008 721.878 585.829 726.147 589.421 732.097 C 593.012 738.048 594.076 745.188 592.376 751.928 C 589.244 763.539 578.716 771.608 566.69 771.614 L 566.69 771.614 Z " fill="rgb(255,255,255)"/><path d=" M 360.456 759.614 C 353.162 759.618 346.184 756.638 341.145 751.365 C 276.837 683.12 240.465 606.813 226.778 511.383 L 226.778 510.821 C 219.091 447.638 230.34 358.207 285.461 296.712 C 326.146 251.34 383.329 228.28 455.136 228.28 C 540.067 228.28 606.812 268.214 648.434 343.583 C 667.244 378.245 679.57 416.05 684.806 455.137 C 686.092 469.563 675.551 482.346 661.145 483.833 C 646.739 485.319 633.81 474.959 632.123 460.575 C 627.562 427.892 617.078 396.315 601.187 367.394 C 568.94 309.836 519.819 280.588 454.948 280.588 C 398.89 280.588 355.018 297.649 324.833 331.397 C 281.337 379.956 272.9 454.762 278.899 504.259 C 290.898 588.627 322.958 655.747 379.579 715.743 C 384.354 720.79 386.904 727.542 386.657 734.485 C 386.41 741.428 383.388 747.982 378.267 752.677 C 373.395 757.117 367.047 759.589 360.456 759.614 L 360.456 759.614 Z " fill="rgb(255,255,255)"/><circle vector-effect="non-scaling-stroke" cx="455.5108796477207" cy="481.0105002942516" r="33.7474510762525" fill="rgb(255,255,255)"/></g></g></svg>